<svg xmlns="http://www.w3.org/2000/svg" width="1200" height="800" viewBox="0 0 1200 800" role="img"><title>personagem.svg</title><rect x="0" y="0" width="1200" height="800" fill="#102B2A" rx="0"/><text x="48" y="44" fill="#69BE8C" font-family="Segoe UI,Arial,sans-serif" font-size="16" font-weight="600">INITY PIXEL / ARTE DE PERSONAGEM / PROPOSTA 01</text><text x="48" y="97" fill="#F2E8CE" font-family="Segoe UI,Arial,sans-serif" font-size="40" font-weight="700">O guardião do refúgio</text><rect x="48" y="135" width="585" height="558" fill="#173A35" rx="22"/><circle cx="330" cy="408" r="192" fill="#20483D"/><g transform="translate(325 390) scale(1.7)"><path d="M -34 70 L -4 70 L -10 148 L -35 148 Z M 4 70 L 34 70 L 40 148 L 12 148 Z" fill="#263B38" stroke="none" stroke-width="1" stroke-linejoin="round"/><path d="M -38 -23 L 32 -23 L 47 80 L -49 80 Z" fill="#E7AE58" stroke="none" stroke-width="1" stroke-linejoin="round"/><path d="M -38 -23 L 0 0 L -49 80 Z" fill="#B7783D" stroke="none" stroke-width="1" stroke-linejoin="round"/><path d="M -39 -15 L -59 49 L -74 43 L -55 -24 Z M 32 -23 L 63 25 L 50 39 L 23 -2 Z" fill="#C68B60" stroke="none" stroke-width="1" stroke-linejoin="round"/><path d="M -23 -78 L 22 -78 L 31 -42 L 12 -22 L -20 -28 L -32 -49 Z" fill="#DDA16E" stroke="none" stroke-width="1" stroke-linejoin="round"/><path d="M -32 -51 L -37 -77 L -14 -94 L 22 -83 L 30 -64 L 1 -72 L -19 -50 Z" fill="#243632" stroke="none" stroke-width="1" stroke-linejoin="round"/><path d="M -33 -24 L 33 -26 L 17 0 L -31 -8 Z M -23 -8 L -51 28 L -53 -9 Z" fill="#69BE8C" stroke="none" stroke-width="1" stroke-linejoin="round"/><rect x="-42" y="43" width="81" height="12" fill="#533D31" rx="0"/><rect x="-35" y="142" width="29" height="15" fill="#533D31" rx="0"/><rect x="10" y="142" width="36" height="15" fill="#533D31" rx="0"/><path d="M 57 32 L 105 -8" fill="none" stroke="#795A3E" stroke-width="10" stroke-linejoin="round"/><path d="M 84 -8 L 105 -31 L 129 -8 L 105 7 Z" fill="#A4B7AD" stroke="none" stroke-width="1" stroke-linejoin="round"/><circle cx="14" cy="-52" r="3" fill="#102B2A"/></g><text x="690" y="205" fill="#69BE8C" font-family="Segoe UI,Arial,sans-serif" font-size="16" font-weight="700">SILHUETA</text><text x="690" y="246" fill="#F2E8CE" font-family="Segoe UI,Arial,sans-serif" font-size="25" font-weight="600">Guardião • corpo a corpo</text><text x="690" y="297" fill="#F2E8CE" font-family="Segoe UI,Arial,sans-serif" font-size="19" font-weight="400">Lenço: vínculo com os aliados</text><text x="690" y="339" fill="#F2E8CE" font-family="Segoe UI,Arial,sans-serif" font-size="19" font-weight="400">Túnica âmbar: leitura no cenário</text><text x="690" y="381" fill="#F2E8CE" font-family="Segoe UI,Arial,sans-serif" font-size="19" font-weight="400">Arma curta: alcance de 2 metros</text><text x="690" y="423" fill="#F2E8CE" font-family="Segoe UI,Arial,sans-serif" font-size="19" font-weight="400">Botas e base de apoio largas</text><text x="690" y="465" fill="#F2E8CE" font-family="Segoe UI,Arial,sans-serif" font-size="19" font-weight="400">Formas simples para modelo 3D</text><rect x="690" y="523" width="52" height="52" fill="#102B2A" rx="8"/><rect x="760" y="523" width="52" height="52" fill="#24554A" rx="8"/><rect x="830" y="523" width="52" height="52" fill="#69BE8C" rx="8"/><rect x="900" y="523" width="52" height="52" fill="#E7AE58" rx="8"/><rect x="970" y="523" width="52" height="52" fill="#D9705D" rx="8"/><rect x="1040" y="523" width="52" height="52" fill="#F2E8CE" rx="8"/><text x="690" y="621" fill="#69BE8C" font-family="Segoe UI,Arial,sans-serif" font-size="19" font-weight="400">Arte conceitual 2D editável.</text><text x="690" y="651" fill="#F2E8CE" font-family="Segoe UI,Arial,sans-serif" font-size="17" font-weight="400">Modelagem e animação: integração futura.</text><text x="48" y="765" fill="#B1C9BA" font-family="Segoe UI,Arial,sans-serif" font-size="16" font-weight="400">TOWER DEFENSE DINO • Proposta visual da AC1 • 30/09/2026</text></svg>